# xmcd
#
# Track frame offsets:
#	150
#	12057
#	27705
#	43056
#	56380
#	70657
#	79329
#	98874
#	111595
#	130285
#	142709
#
# Disc length: 2099 seconds
#
# Revision: 0
# Processed by: cddbd v1.4PL0 Copyright (c) Steve Scherf et al.
# Submitted via: audiograbber 1.80
#
DISCID=9308310b
DTITLE=Wade Stockton and the Sons of the Redneck Riviera - Typically Texas
DYEAR=1900
DGENRE=
TTITLE0=Could It Be
TTITLE1=Plant Life
TTITLE2=Typical Texas Morning
TTITLE3=Loving You More
TTITLE4=Always a Cowboy
TTITLE5=Gone Too Long
TTITLE6=Milk Cow Blues
TTITLE7=Wrong Right Turn
TTITLE8=Paradise For Me
TTITLE9=The Honky-Tonks again
TTITLE10=South's Gonna Do It Again
EXTD=
EXTT0=
EXTT1=
EXTT2=
EXTT3=
EXTT4=
EXTT5=
EXTT6=
EXTT7=
EXTT8=
EXTT9=
EXTT10=
PLAYORDER=
